# xmcd
#
# Track frame offsets: 
#        150
#        20258
#        37785
#        50135
#        63683
#        83535
#        104138
#        123075
#        142290
#        162390
#        179485
#        199510
#        217850
#        240163
#        258873
#        286805
#
# Disc length: 4124 seconds
#
# Revision: 13
# Processed by: cddbd v1.5.2PL0 Copyright (c) Steve Scherf et al.
# Submitted via: ExactAudioCopy v1.0b3
#
DISCID=dc101a10
DTITLE=Ilse DeLange - Here I Am 1998-2003
DYEAR=2003
DGENRE=Country
TTITLE0=I'm Not So Tough
TTITLE1=World Of Hurt
TTITLE2=I'd Be Yours
TTITLE3=When We Don't Talk
TTITLE4=Livin' On Love
TTITLE5=I Still Cry
TTITLE6=Shine Feat. Rosemary's Sons
TTITLE7=No Reason To Be Shy
TTITLE8=Heavenless
TTITLE9=Let Go
TTITLE10=I Almost Believed
TTITLE11=Wouldn't That Be Something
TTITLE12=All The Answers
TTITLE13=Have A Little Faith In Me (Live Bonustrack)
TTITLE14=Before You Let Me Go (Live Bonustrack) Kane Feat. Ilse Delang
TTITLE14=e
TTITLE15=All The Answers (Live Bonustrack)
EXTD=YEAR: 2003
EXTT0=
EXTT1=
EXTT2=
EXTT3=
EXTT4=
EXTT5=
EXTT6=with Rosemary's Sons
EXTT7=
EXTT8=
EXTT9=
EXTT10=
EXTT11=
EXTT12=
EXTT13=
EXTT14=Kane featuring Ilse DeLange
EXTT15=
PLAYORDER=
